<mxfile host="app.diagrams.net" modified="2023-11-08T09:31:25.837Z" agent="Mozilla/5.0 (Windows NT 10.0; Win64; x64) AppleWebKit/537.36 (KHTML, like Gecko) Chrome/119.0.0.0 Safari/537.36" etag="PnibbFuJYLYJUAbjsh8I" version="22.0.8" type="gitlab">
  <diagram name="Page-1" id="03018318-947c-dd8e-b7a3-06fadd420f32">
    <mxGraphModel dx="1500" dy="876" grid="1" gridSize="10" guides="1" tooltips="1" connect="1" arrows="1" fold="1" page="1" pageScale="1" pageWidth="1100" pageHeight="850" background="none" math="0" shadow="0">
      <root>
        <mxCell id="0" />
        <mxCell id="1" parent="0" />
        <mxCell id="IPebfsDquPMqLjqnNr3s-1" value="LOGO" style="whiteSpace=wrap;html=1;rounded=0;shadow=0;labelBackgroundColor=none;strokeWidth=1;fontFamily=Verdana;fontSize=28;align=center;comic=1;" vertex="1" parent="1">
          <mxGeometry x="39" y="49" width="190" height="50" as="geometry" />
        </mxCell>
        <mxCell id="IPebfsDquPMqLjqnNr3s-2" value="Home" style="text;html=1;points=[];align=left;verticalAlign=top;spacingTop=-4;fontSize=14;fontFamily=Verdana" vertex="1" parent="1">
          <mxGeometry x="329" y="64" width="60" height="20" as="geometry" />
        </mxCell>
        <mxCell id="IPebfsDquPMqLjqnNr3s-3" value="Predict" style="text;html=1;points=[];align=left;verticalAlign=top;spacingTop=-4;fontSize=14;fontFamily=Verdana" vertex="1" parent="1">
          <mxGeometry x="449" y="64" width="60" height="20" as="geometry" />
        </mxCell>
        <mxCell id="IPebfsDquPMqLjqnNr3s-4" value="" style="line;strokeWidth=1;html=1;rounded=0;shadow=0;labelBackgroundColor=none;fillColor=none;fontFamily=Verdana;fontSize=14;fontColor=#000000;align=center;comic=1;" vertex="1" parent="1">
          <mxGeometry y="149" width="1100" height="10" as="geometry" />
        </mxCell>
        <mxCell id="IPebfsDquPMqLjqnNr3s-5" value="History" style="text;html=1;points=[];align=left;verticalAlign=top;spacingTop=-4;fontSize=14;fontFamily=Verdana" vertex="1" parent="1">
          <mxGeometry x="589" y="64" width="60" height="20" as="geometry" />
        </mxCell>
        <mxCell id="IPebfsDquPMqLjqnNr3s-6" value="About us" style="text;html=1;points=[];align=left;verticalAlign=top;spacingTop=-4;fontSize=14;fontFamily=Verdana" vertex="1" parent="1">
          <mxGeometry x="729" y="64" width="60" height="20" as="geometry" />
        </mxCell>
        <mxCell id="IPebfsDquPMqLjqnNr3s-7" value="" style="verticalLabelPosition=bottom;shadow=0;dashed=0;align=center;html=1;verticalAlign=top;strokeWidth=1;shape=mxgraph.mockup.containers.userMale;strokeColor=#666666;strokeColor2=#008cff;" vertex="1" parent="1">
          <mxGeometry x="889" y="37" width="80" height="80" as="geometry" />
        </mxCell>
        <mxCell id="IPebfsDquPMqLjqnNr3s-8" value="" style="group" vertex="1" connectable="0" parent="1">
          <mxGeometry x="992" y="61" width="90" height="26" as="geometry" />
        </mxCell>
        <mxCell id="IPebfsDquPMqLjqnNr3s-9" value="" style="rounded=1;whiteSpace=wrap;html=1;" vertex="1" parent="IPebfsDquPMqLjqnNr3s-8">
          <mxGeometry width="90" height="26" as="geometry" />
        </mxCell>
        <mxCell id="IPebfsDquPMqLjqnNr3s-10" value="Log Out" style="text;html=1;points=[];align=left;verticalAlign=top;spacingTop=-4;fontSize=14;fontFamily=Verdana" vertex="1" parent="IPebfsDquPMqLjqnNr3s-8">
          <mxGeometry x="15" width="60" height="20" as="geometry" />
        </mxCell>
        <mxCell id="IPebfsDquPMqLjqnNr3s-11" value="" style="line;strokeWidth=1;html=1;rounded=0;shadow=0;labelBackgroundColor=none;fillColor=none;fontFamily=Verdana;fontSize=14;fontColor=#000000;align=center;comic=1;" vertex="1" parent="1">
          <mxGeometry y="759" width="1100" height="10" as="geometry" />
        </mxCell>
        <mxCell id="IPebfsDquPMqLjqnNr3s-12" value="Copyright&amp;nbsp;&amp;nbsp;Â© 2023. Ryan Yeo. All Rights Reserved" style="text;html=1;align=center;verticalAlign=middle;resizable=0;points=[];autosize=1;strokeColor=none;fillColor=none;" vertex="1" parent="1">
          <mxGeometry x="71" y="789" width="290" height="30" as="geometry" />
        </mxCell>
        <mxCell id="IPebfsDquPMqLjqnNr3s-79" value="" style="strokeWidth=1;shadow=0;dashed=0;align=center;html=1;shape=mxgraph.mockup.forms.rrect;rSize=0;strokeColor=#999999;fillColor=#ffffff;" vertex="1" parent="1">
          <mxGeometry x="370" y="180" width="400" height="550" as="geometry" />
        </mxCell>
        <mxCell id="IPebfsDquPMqLjqnNr3s-80" value="Sign In" style="strokeWidth=1;shadow=0;dashed=0;align=center;html=1;shape=mxgraph.mockup.forms.anchor;fontSize=12;fontColor=#666666;align=left;resizeWidth=1;spacingLeft=0;" vertex="1" parent="IPebfsDquPMqLjqnNr3s-79">
          <mxGeometry width="199.99999999999997" height="20" relative="1" as="geometry">
            <mxPoint x="10" y="10" as="offset" />
          </mxGeometry>
        </mxCell>
        <mxCell id="IPebfsDquPMqLjqnNr3s-81" value="" style="shape=line;strokeColor=#ddeeff;strokeWidth=2;html=1;resizeWidth=1;" vertex="1" parent="IPebfsDquPMqLjqnNr3s-79">
          <mxGeometry width="360.00000000000006" height="10" relative="1" as="geometry">
            <mxPoint x="10" y="30" as="offset" />
          </mxGeometry>
        </mxCell>
        <mxCell id="IPebfsDquPMqLjqnNr3s-82" value="User Name:" style="strokeWidth=1;shadow=0;dashed=0;align=center;html=1;shape=mxgraph.mockup.forms.anchor;fontSize=12;fontColor=#666666;align=left;resizeWidth=1;spacingLeft=0;" vertex="1" parent="IPebfsDquPMqLjqnNr3s-79">
          <mxGeometry width="199.99999999999997" height="20" relative="1" as="geometry">
            <mxPoint x="10" y="40" as="offset" />
          </mxGeometry>
        </mxCell>
        <mxCell id="IPebfsDquPMqLjqnNr3s-83" value="johndoe" style="strokeWidth=1;shadow=0;dashed=0;align=center;html=1;shape=mxgraph.mockup.forms.rrect;rSize=0;strokeColor=#999999;fontColor=#666666;align=left;spacingLeft=5;resizeWidth=1;" vertex="1" parent="IPebfsDquPMqLjqnNr3s-79">
          <mxGeometry width="300" height="25" relative="1" as="geometry">
            <mxPoint x="10" y="60" as="offset" />
          </mxGeometry>
        </mxCell>
        <mxCell id="IPebfsDquPMqLjqnNr3s-84" value="Password:" style="strokeWidth=1;shadow=0;dashed=0;align=center;html=1;shape=mxgraph.mockup.forms.anchor;fontSize=12;fontColor=#666666;align=left;resizeWidth=1;spacingLeft=0;" vertex="1" parent="IPebfsDquPMqLjqnNr3s-79">
          <mxGeometry width="199.99999999999997" height="20" relative="1" as="geometry">
            <mxPoint x="10" y="151" as="offset" />
          </mxGeometry>
        </mxCell>
        <mxCell id="IPebfsDquPMqLjqnNr3s-85" value="********" style="strokeWidth=1;shadow=0;dashed=0;align=center;html=1;shape=mxgraph.mockup.forms.rrect;rSize=0;strokeColor=#999999;fontColor=#666666;align=left;spacingLeft=5;resizeWidth=1;" vertex="1" parent="IPebfsDquPMqLjqnNr3s-79">
          <mxGeometry width="300" height="25" relative="1" as="geometry">
            <mxPoint x="10" y="172" as="offset" />
          </mxGeometry>
        </mxCell>
        <mxCell id="IPebfsDquPMqLjqnNr3s-86" value="SIGN IN" style="strokeWidth=1;shadow=0;dashed=0;align=center;html=1;shape=mxgraph.mockup.forms.rrect;rSize=5;strokeColor=none;fontColor=#ffffff;fillColor=#66bbff;fontSize=16;fontStyle=1;" vertex="1" parent="IPebfsDquPMqLjqnNr3s-79">
          <mxGeometry y="1" width="80" height="30" relative="1" as="geometry">
            <mxPoint x="10" y="-335" as="offset" />
          </mxGeometry>
        </mxCell>
        <mxCell id="IPebfsDquPMqLjqnNr3s-87" value="Forgot Password?" style="strokeWidth=1;shadow=0;dashed=0;align=center;html=1;shape=mxgraph.mockup.forms.anchor;fontSize=12;fontColor=#9999ff;align=left;spacingLeft=0;fontStyle=4;resizeWidth=1;" vertex="1" parent="IPebfsDquPMqLjqnNr3s-79">
          <mxGeometry y="1" width="300" height="20" relative="1" as="geometry">
            <mxPoint x="10" y="-285" as="offset" />
          </mxGeometry>
        </mxCell>
        <mxCell id="IPebfsDquPMqLjqnNr3s-88" value="" style="shape=line;strokeColor=#ddeeff;strokeWidth=2;html=1;resizeWidth=1;" vertex="1" parent="IPebfsDquPMqLjqnNr3s-79">
          <mxGeometry y="1" width="360.00000000000006" height="10" relative="1" as="geometry">
            <mxPoint x="10" y="-250" as="offset" />
          </mxGeometry>
        </mxCell>
        <mxCell id="IPebfsDquPMqLjqnNr3s-89" value="New User" style="strokeWidth=1;shadow=0;dashed=0;align=center;html=1;shape=mxgraph.mockup.forms.anchor;fontSize=12;fontColor=#666666;align=left;spacingLeft=0;resizeWidth=1;" vertex="1" parent="IPebfsDquPMqLjqnNr3s-79">
          <mxGeometry y="1" width="300" height="20" relative="1" as="geometry">
            <mxPoint x="10" y="-230" as="offset" />
          </mxGeometry>
        </mxCell>
        <mxCell id="IPebfsDquPMqLjqnNr3s-90" value="SIGN UP" style="strokeWidth=1;shadow=0;dashed=0;align=center;html=1;shape=mxgraph.mockup.forms.rrect;rSize=5;strokeColor=none;fontColor=#ffffff;fillColor=#66bbff;fontSize=16;fontStyle=1;" vertex="1" parent="IPebfsDquPMqLjqnNr3s-79">
          <mxGeometry y="1" width="80" height="30" relative="1" as="geometry">
            <mxPoint x="10" y="-210" as="offset" />
          </mxGeometry>
        </mxCell>
        <mxCell id="IPebfsDquPMqLjqnNr3s-91" value="Email:" style="strokeWidth=1;shadow=0;dashed=0;align=center;html=1;shape=mxgraph.mockup.forms.anchor;fontSize=12;fontColor=#666666;align=left;resizeWidth=1;spacingLeft=0;" vertex="1" parent="1">
          <mxGeometry x="380.0000000000002" y="285" width="199.99999999999997" height="20" as="geometry" />
        </mxCell>
        <mxCell id="IPebfsDquPMqLjqnNr3s-92" value="johndoe@gmail.com" style="strokeWidth=1;shadow=0;dashed=0;align=center;html=1;shape=mxgraph.mockup.forms.rrect;rSize=0;strokeColor=#999999;fontColor=#666666;align=left;spacingLeft=5;resizeWidth=1;" vertex="1" parent="1">
          <mxGeometry x="380.0000000000002" y="305" width="300" height="25" as="geometry" />
        </mxCell>
      </root>
    </mxGraphModel>
  </diagram>
</mxfile>
